# xmcd
# 
# Track frame offsets:
#     150
#     64037
#     114295
#     147132
#     154127
#     237485
# 
# Disc length: 3958
# 
# Revision: 4
# Processed by: cddbd v1.5.2PL0 Copyright (c) Steve Scherf et al.
# Submitted via: fre:ac v1.0.17
# 
DISCID=4a0f7406
DTITLE=Various Artist - Gershwin - Masters of the Millenium Gershwin Rhapsody in Blue
DYEAR=1999
DGENRE=Classical
TTITLE0=Concerto for Piano and Orchestra, in F major - Allegro
TTITLE1=Concerto for Piano and Orchestra, in F major - Adagio - andante con moto
TTITLE2=Concerto for Piano and Orchestra, in F major - Allegro agitato
TTITLE3=Prelude No. 1: Allegro ben ritmato e deciso
TTITLE4=An American in Paris
TTITLE5=Rhapsody in Blue
EXTD=Gershwin/Collection\n
EXTT0=
EXTT1=
EXTT2=
EXTT3=
EXTT4=
EXTT5=
PLAYORDER=
